<?xml version="1.0" encoding="UTF-8" standalone="no"?>
<!-- Generator: Adobe Illustrator 24.2.3, SVG Export Plug-In . SVG Version: 6.00 Build 0)  -->

<svg
   version="1.1"
   id="Capa_1"
   x="0px"
   y="0px"
   viewBox="0 0 612 612"
   style="enable-background:new 0 0 612 612;"
   xml:space="preserve"
   sodipodi:docname="logo pawsistente pal pinchi knox_Mesa de trabajo 1 copia 3.svg"
   inkscape:version="1.4.2 (ebf0e940d0, 2025-05-08)"
   xmlns:inkscape="http://www.inkscape.org/namespaces/inkscape"
   xmlns:sodipodi="http://sodipodi.sourceforge.net/DTD/sodipodi-0.dtd"
   xmlns="http://www.w3.org/2000/svg"
   xmlns:svg="http://www.w3.org/2000/svg"><defs
   id="defs4" /><sodipodi:namedview
   id="namedview4"
   pagecolor="#505050"
   bordercolor="#eeeeee"
   borderopacity="1"
   inkscape:showpageshadow="0"
   inkscape:pageopacity="0"
   inkscape:pagecheckerboard="0"
   inkscape:deskcolor="#d1d1d1"
   inkscape:zoom="0.69281046"
   inkscape:cx="306"
   inkscape:cy="305.2783"
   inkscape:window-width="1078"
   inkscape:window-height="1028"
   inkscape:window-x="0"
   inkscape:window-y="0"
   inkscape:window-maximized="1"
   inkscape:current-layer="Capa_1" />
<style
   type="text/css"
   id="style1">
	.st0{fill:#B1D3DD;}
	.st1{fill:#1A1B38;}
	.st2{fill:#FFFFFF;}
	.st3{fill:none;}
	.st4{fill:#29235C;}
	.st5{fill:url(#SVGID_1_);}
</style>

<g
   id="g4">
	<path
   class="st2"
   d="M490.31,141.06c-9.3-8.46-19.66-14.03-30.77-16.54c-12.49-2.82-24.04-1.38-34.31,4.29   c-0.18-0.35-0.35-0.69-0.52-1.03c-1.51-2.99-3.07-6.07-4.75-9.04c-5.19-9.21-12.3-17.59-23.04-27.18   c-11.99-10.7-24.88-19-38.29-24.68c-19.87-8.41-36.67-10.71-52.84-7.21c-0.08-0.01-12.6,4.5-12.65,4.53   c-15.4,8.25-24.03,21.7-26.31,41.05c-1.54-1.44-3.08-2.83-4.74-4.15c-12.32-9.84-26.32-13.35-41.6-10.43   c-0.17,0.03-14.14,5.06-14.19,5.1c-11.27,6.04-20.5,15.37-29.05,29.39c-16.57,27.15-23.1,56.17-19.41,86.25   c0.49,4,1.4,7.95,2.28,11.78c0.15,0.64,0.3,1.28,0.44,1.93c-0.31,0.06-0.62,0.12-0.93,0.18c-12.82,2.49-23.22,10.02-30.93,22.36   c-8.12,12.99-11.67,27.94-11.19,47.03c0.57,22.64,6.83,43.23,18.62,61.19c8.27,12.6,19.98,22.77,35.79,31.08   c13.45,7.07,26.72,10.3,40.46,9.84c0.04,0.89,0.08,1.76,0.11,2.63c1.24,39.14,28.03,70.86,66.67,78.93   c18.08,3.78,36.74,2.35,57.05-4.37c0.98-0.32,1.94-0.66,2.88-1c13.19-4.79,23.07-11.51,30.13-20.47   c4.13-5.24,7.61-10.99,10.99-16.55c1.1-1.81,2.19-3.62,3.31-5.4l0.2-0.32c0.27-0.44,0.57-0.91,0.81-1.28   c0.42,0.13,0.94,0.3,1.43,0.46l0.27,0.09c2.01,0.66,4.01,1.35,6.02,2.04c5.96,2.05,12.12,4.16,18.44,5.53   c12.06,2.61,24.59,1.28,38.3-4.05c18.3-7.11,31.53-15.53,41.65-26.48c13.96-15.1,21.83-30.87,24.06-48.21   c3.03-23.5-3.21-45.11-18.53-64.22c1.14-1.19,2.3-2.37,3.43-3.52c3.94-4,8.01-8.14,11.19-12.89c18.31-27.32,22.48-56.32,12.4-86.21   C516.5,171.79,505.45,154.82,490.31,141.06z M329.2,444.98c-9.32,3.24-19.41,6.2-30.02,5.85c-23-0.76-39.11-9.25-49.24-25.96   c-9.38-15.48-10.56-32.83-3.49-51.57c2.77-7.33,6.72-15.12,11.74-23.16c9-14.39,14.79-30.02,17.22-46.47   c2.05-13.84,6.7-24.9,14.23-33.82c14.17-16.78,32.21-25.18,53.63-24.97c16.09,0.16,30.31,5.63,42.26,16.27   c14.56,12.97,30.89,22.07,49.9,27.83c16.14,4.89,29.13,13.32,38.61,25.06c15.49,19.17,15.57,45.67,0.2,65.95   c-8.57,11.31-20.16,19.39-36.45,25.43l-0.2,0.08c-9.58,4.26-20.11,4.12-32.2-0.42c-0.91-0.34-1.82-0.69-2.74-1.04   c-4.24-1.61-8.62-3.28-13.14-4.46c-5.77-1.5-11.06-1.38-15.74,0.33c-5.04,1.83-9.38,5.48-12.88,10.9c-1.91,2.96-3.7,6.02-5.43,8.97   c-1.96,3.35-3.98,6.82-6.14,10.05C344.57,436.97,337.97,441.95,329.2,444.98z M275.97,177.07c4.14,11.88,7.85,24.69,6.92,37.94   c-0.93,13.28-4.19,23.42-10.25,31.91c-10.21,14.3-30.19,19.75-45.48,12.43c-27.59-13.23-42.79-38.59-40.65-67.85   c1.6-21.86,7.89-39.99,19.25-55.43c2.96-4.03,6.01-7.47,9.06-10.22c2.91-2.62,5.92-4.49,8.95-5.59c7.81-2.84,15.76-0.65,22.43,6.52   c5.35,5.75,10.52,12.83,15.78,21.65c4.82,8.06,12.23,24.27,13.7,27.84L275.97,177.07z M244.93,330.08   c0.97,15.87-9.15,30.19-19.17,33.64l-0.08,0.03l-0.08,0.03c-10.56,4.19-20.35,4.42-30.81,0.7c-23.55-8.38-38.13-24.4-44.58-48.97   c-3.47-13.21-4.06-25.27-1.81-36.86c0.93-4.78,2.81-9.89,5.6-15.19c2.24-4.26,5.31-7.1,9.26-8.53c2.97-1.08,6.44-1.37,10.43-0.89   c9.09,1.09,16.95,5.64,23.44,9.95c14.04,9.32,25.1,19,33.79,29.57C239.48,303.98,244.06,315.93,244.93,330.08z M398.06,193.97   c-3.89,10.39-12.43,18.83-22.86,22.62c-0.1,0.04-0.2,0.07-0.3,0.11c-10.77,3.81-22.65,2.4-33.46-3.96   c-13.33-7.85-23.27-19.1-30.39-34.38c-9.27-19.9-14.14-41.32-14.9-65.48c-0.34-10.79,3.23-18.21,10.92-22.67   c0.99-0.57,2-1.04,3.03-1.41c5.14-1.87,10.69-1.45,15.6-0.72c17.84,2.64,34.2,10.49,50.04,23.99   c11.16,9.51,18.78,19.74,23.32,31.27c0.16,0.4,0.34,0.8,0.6,1.36c0.1,0.22,0.22,0.48,0.36,0.78   C404.87,161.21,404.22,177.52,398.06,193.97z M415.4,220.55c0.98-18.46,4.65-34.96,11.24-50.44c2.04-4.79,5.23-9.1,9.48-12.82   c1.93-1.69,3.93-2.91,6.04-3.68c4.03-1.47,8.45-1.25,13.53,0.6c12.22,4.46,20.27,13.64,26.54,22.02   c5.46,7.3,9.39,14.68,12.02,22.56l0.03,0.08c8.39,23.28,5.09,44.93-9.81,64.35c-7.72,10.06-18.77,15.41-30.32,14.69   c-12.03-0.75-22.81-7.81-29.57-19.38C417.68,246.74,414.67,234.32,415.4,220.55z"
   id="path1" />
	<path
   class="st2"
   d="M59.63,575.72c12.06-38.13,28.28-75.61,49.58-111.06c10.64-17.72,22.52-34.92,35.65-51.38   c13.12-16.46,27.47-32.17,42.92-46.94l38.31,51.47c-16.34,8.88-32.21,18.93-47.47,30.14c-15.26,11.2-29.9,23.55-43.81,36.93   c-27.84,26.76-52.66,57.69-74.2,91.31L59.63,575.72z"
   id="path2" />
	<path
   class="st2"
   d="M61.91,439.84c6.85-20.7,14.84-41.24,25.35-61.15c5.27-9.95,11.19-19.72,18.06-29.14   c6.88-9.41,14.72-18.47,23.84-26.74l21.03,29.85c-8.51,4.22-16.82,9.64-24.78,15.9c-7.97,6.27-15.58,13.38-22.83,21.03   c-14.51,15.32-27.57,32.66-39.69,50.73L61.91,439.84z"
   id="path3" />
	<path
   class="st2"
   d="M182.78,541.66c4.91-9.44,10.23-18.75,16.14-27.81c5.91-9.06,12.42-17.88,19.74-26.26   c7.32-8.37,15.47-16.31,24.65-23.43c9.18-7.11,19.42-13.4,30.66-18.31l14.54,33.97c-8.93,1.14-22.21,4.62-31.17,8.18   c-8.96,3.56-17.78,8.24-26.3,13.73c-8.52,5.5-16.73,11.8-24.62,18.63c-7.89,6.84-15.46,14.2-22.76,21.91L182.78,541.66z"
   id="path4" />
</g>
</svg>
